<svg width="30" height="30" viewBox="0 0 30 30" fill="none" xmlns="http://www.w3.org/2000/svg">
<path fill-rule="evenodd" clip-rule="evenodd" d="M26.4892 1.74179C26.9773 1.25364 27.7688 1.25364 28.2569 1.74179C28.7451 2.22995 28.7451 3.02141 28.2569 3.50956L3.50819 28.2583C3.02004 28.7465 2.22858 28.7465 1.74043 28.2583C1.25227 27.7701 1.25227 26.9787 1.74043 26.4905L26.4892 1.74179Z" fill="white"/>
<path fill-rule="evenodd" clip-rule="evenodd" d="M1.74131 3.50962C1.25315 3.02146 1.25315 2.23 1.74131 1.74185C2.22946 1.25369 3.02092 1.25369 3.50907 1.74185L28.2578 26.4906C28.746 26.9787 28.746 27.7702 28.2578 28.2584C27.7697 28.7465 26.9782 28.7465 26.49 28.2584L1.74131 3.50962Z" fill="white"/>
</svg>
