<svg width="36" height="36" viewBox="0 0 36 36" fill="none"
    xmlns="http://www.w3.org/2000/svg">
    <path d="M26.2098 10.8551L22.4415 4.5H14.7761L11.0078 10.8551H26.2098Z" fill="#14C510"/>
    <path d="M13.7234 4.5H5.47195L1.5 10.8551H9.95504L13.7234 4.5Z" fill="#14C510"/>
    <path d="M9.89237 11.7627H1.60156L17.0892 31.8893L9.89237 11.7627Z" fill="#14C510"/>
    <path d="M27.3201 11.7627L19.9141 31.8471L35.6056 11.7627H27.3201Z" fill="#14C510"/>
    <path d="M19.1425 32.2543H18.8033L26.3595 11.7627H10.8594L18.1866 32.2543H17.8824C17.6316 32.2543 17.4285 32.4575 17.4285 32.7083C17.4285 32.959 17.6316 33.1622 17.8824 33.1622H19.1425C19.3933 33.1622 19.5965 32.959 19.5965 32.7083C19.5965 32.4575 19.3933 32.2543 19.1425 32.2543Z" fill="#14C510"/>
    <path d="M31.7474 4.5H23.4961L27.2644 10.8551H35.7194L31.7474 4.5Z" fill="#14C510"/>
</svg>
